<svg width="28" height="28" viewBox="0 0 28 28" fill="none" xmlns="http://www.w3.org/2000/svg">
<path fill-rule="evenodd" clip-rule="evenodd" d="M13.2344 28H4.10156C1.83994 28 0 26.1601 0 23.8984V4.10156C0 1.83994 1.83994 0 4.10156 0H23.8984C26.1601 0 28 1.83994 28 4.10156V23.8984C28 26.1601 26.1601 28 23.8984 28H16.5156V18.0469H20.7426L21.2895 14.7656H16.5156V11.4844C16.5156 10.5797 17.2516 9.84375 18.1562 9.84375H21.4375V6.5625H17.3359C15.0743 6.5625 13.2344 8.40244 13.2344 10.6641V14.7656H9.95312V18.0469H13.2344V28ZM4.10156 1.64062C2.74463 1.64062 1.64062 2.74463 1.64062 4.10156V23.8984C1.64062 25.2554 2.74463 26.3594 4.10156 26.3594H11.5938V19.6875H8.3125V13.125H11.5938V10.6641C11.5938 7.49774 14.1696 4.92188 17.3359 4.92188H23.0781V11.4844H18.1562V13.125H23.2262L22.1324 19.6875H18.1562V26.3594H23.8984C25.2554 26.3594 26.3594 25.2554 26.3594 23.8984V4.10156C26.3594 2.74463 25.2554 1.64062 23.8984 1.64062H4.10156Z" fill="#7921E9"/>
</svg>
