<svg width="50" height="50" viewBox="0 0 50 50" fill="none" xmlns="http://www.w3.org/2000/svg">
<path fill-rule="evenodd" clip-rule="evenodd" d="M50 25C50 11.1828 38.8187 0 25 0C11.1828 0 0 11.1813 0 25C0 38.6948 11.0878 50 25 50C38.855 50 50 38.7577 50 25ZM25 2.92969C37.1696 2.92969 47.0703 12.8304 47.0703 25C47.0703 29.4518 45.7462 33.7307 43.2907 37.355C33.4305 26.7487 16.5874 26.7296 6.70929 37.355C4.25377 33.7307 2.92969 29.4518 2.92969 25C2.92969 12.8304 12.8304 2.92969 25 2.92969ZM8.53653 39.6973C17.3035 29.8637 32.6988 29.866 41.4631 39.6973C32.6668 49.5384 17.3367 49.5415 8.53653 39.6973Z" fill="#7921E9"/>
<path fill-rule="evenodd" clip-rule="evenodd" d="M34 17C34 21.9625 30.1868 26 25.5 26C20.8132 26 17 21.9625 17 17V14C17 9.0375 20.8132 5 25.5 5C30.1868 5 34 9.0375 34 14V17ZM25.5 8C22.3752 8 19.8333 10.6914 19.8333 14V17C19.8333 20.3086 22.3752 23 25.5 23C28.6248 23 31.1667 20.3086 31.1667 17V14C31.1667 10.6914 28.6248 8 25.5 8Z" fill="#7921E9"/>
</svg>
