<svg width="28" height="28" viewBox="0 0 28 28" fill="none" xmlns="http://www.w3.org/2000/svg">
<path fill-rule="evenodd" clip-rule="evenodd" d="M7 14C7 10.1351 10.1317 7 14 7C17.8649 7 21 10.1317 21 14C21 17.8649 17.8683 21 14 21C10.1351 21 7 17.8683 7 14ZM9.45648 14C9.45648 16.5099 11.489 18.5435 14 18.5435C16.511 18.5435 18.5447 16.5099 18.5435 14C18.5435 11.4901 16.5099 9.45648 14 9.45648C11.4901 9.45648 9.45648 11.4901 9.45648 14Z" fill="#7921E9"/>
<path fill-rule="evenodd" clip-rule="evenodd" d="M8.2381 0.0879496C10.8164 -0.0263818 17.1969 -0.032215 19.7729 0.0879496C25.0428 0.330612 27.6806 3.31139 27.9116 8.22647C28.0259 10.8048 28.0329 17.184 27.9116 19.7611C27.7203 23.9249 25.7626 26.243 23.1691 27.2498C21.2706 27.9848 19.4171 27.9848 14.0809 27.9848H14.0049C13.4423 27.9848 12.8978 27.9888 12.3706 27.9928C7.9703 28.0255 4.77671 28.0492 2.36277 25.6363C-0.0340702 23.2395 -0.0167462 20.1137 0.00874803 15.5135C0.0114603 15.0241 0.0142651 14.518 0.0142651 13.9944C0.0142651 13.4349 0.0104597 12.8941 0.00677983 12.3711C-0.0245364 7.92061 -0.0467629 4.7619 2.36277 2.35241C3.97393 0.741271 5.97243 0.194114 8.2381 0.0879496ZM15.2556 25.4644C20.0193 25.4754 22.2248 25.4805 23.8504 23.8549C25.4842 22.2134 25.4821 20.0309 25.4773 14.9668C25.477 14.6535 25.4767 14.3291 25.4768 13.9932C25.4768 10.2576 25.4616 9.81428 25.3951 8.33847C25.1274 2.4248 21.0267 2.46228 15.5739 2.51212C15.0629 2.51679 14.54 2.52157 14.0073 2.52157L13.9548 2.48657C10.27 2.48657 9.78981 2.50355 8.35639 2.55421L8.28943 2.55657C2.38487 2.85898 2.42061 6.75254 2.47183 12.3309C2.47673 12.8643 2.48177 13.4132 2.48177 13.9757C2.48177 14.6391 2.47486 15.271 2.46829 15.8727C2.42768 19.5912 2.3997 22.1534 4.09177 23.8374C5.71821 25.4682 7.91882 25.4667 13.1698 25.4629C13.4294 25.4627 13.6964 25.4625 13.9711 25.4625C14.419 25.4625 14.8467 25.4635 15.2556 25.4644Z" fill="#7921E9"/>
<path d="M22 8C23.1046 8 24 7.10457 24 6C24 4.89543 23.1046 4 22 4C20.8954 4 20 4.89543 20 6C20 7.10457 20.8954 8 22 8Z" fill="#7921E9"/>
</svg>
