<svg width="46" height="50" viewBox="0 0 46 50" fill="none" xmlns="http://www.w3.org/2000/svg">
<path d="M42.8569 26.8221V20.3712C42.8569 18.2528 41.1316 16.5294 39.0107 16.5294H23.6875C23.8611 15.8847 23.9514 15.2146 23.9514 14.5305C23.9514 13.8808 23.8694 13.25 23.7164 12.6472C25.1244 14.2854 27.2105 15.3262 29.5366 15.3262C33.7669 15.3262 37.2085 11.8886 37.2085 7.66309C37.2085 3.4376 33.7669 0 29.5365 0C25.3062 0 21.8646 3.4376 21.8646 7.66309C21.8646 8.31279 21.9466 8.94365 22.0996 9.54639C20.6916 7.9082 18.6055 6.86738 16.2794 6.86738C12.0491 6.86738 8.60756 10.3051 8.60756 14.5305C8.60756 15.2146 8.6978 15.8845 8.87144 16.5294H3.84612C1.72532 16.5294 0 18.2527 0 20.3712V46.1583C0 48.2767 1.72532 50 3.84612 50H39.0107C41.1315 50 42.8569 48.2767 42.8569 46.1583V39.7074C44.624 39.5012 46 37.9975 46 36.178V30.3517C46.0001 28.5319 44.624 27.0282 42.8569 26.8221Z" fill="#7921E9"/>
<path d="M29.5365 3.23145C31.9829 3.23145 33.9733 5.21953 33.9733 7.66318C33.9733 10.1068 31.9829 12.0949 29.5365 12.0949C27.09 12.0949 25.0996 10.1068 25.0996 7.66318C25.0996 5.21953 27.09 3.23145 29.5365 3.23145Z" fill="#7921E9"/>
<path d="M16.2786 10.0986C18.7251 10.0986 20.7155 12.0867 20.7155 14.5304C20.7155 15.2351 20.5529 15.9144 20.2404 16.5293H12.3169C12.0045 15.9143 11.8418 15.2351 11.8418 14.5304C11.8419 12.0868 13.8322 10.0986 16.2786 10.0986Z" fill="#7921E9"/>
<path d="M39.6213 46.1584C39.6213 46.495 39.3471 46.7687 39.01 46.7687H3.84543C3.50842 46.7687 3.23438 46.4949 3.23438 46.1584V20.3713C3.23438 20.0347 3.50852 19.7607 3.84543 19.7607C4.54281 19.7607 38.1698 19.7607 39.01 19.7607C39.347 19.7607 39.6213 20.0346 39.6213 20.3713V26.7973C38.6149 26.7973 29.2155 26.7973 28.2065 26.7973C26.3078 26.7973 24.7631 28.3402 24.7631 30.2367C24.7631 31.587 24.7631 35.7937 24.7631 36.2931C24.7631 38.1896 26.3078 39.7325 28.2065 39.7325C29.2154 39.7325 38.6149 39.7325 39.6213 39.7325V46.1584Z" fill="white"/>
<path d="M42.7644 36.1777C42.7644 36.3559 42.6194 36.5008 42.4409 36.5008C41.9303 36.5008 29.0287 36.5008 28.3216 36.5008C28.1432 36.5008 27.998 36.356 27.998 36.1777V30.3514C27.998 30.1732 28.1432 30.0283 28.3216 30.0283C29.0445 30.0283 41.9398 30.0283 42.4409 30.0283C42.6193 30.0283 42.7644 30.1732 42.7644 30.3514V36.1777Z" fill="white"/>
<path d="M31 35C32.1046 35 33 34.1046 33 33C33 31.8954 32.1046 31 31 31C29.8954 31 29 31.8954 29 33C29 34.1046 29.8954 35 31 35Z" fill="#7921E9"/>
</svg>
