<svg width="36" height="36" viewBox="0 0 36 36" fill="none" xmlns="http://www.w3.org/2000/svg">
<path d="M36 5.27344V30.7266C36 33.6374 33.6374 36 30.7266 36H22.2188L20.1094 33.8906H18L15.8906 36H5.27344C2.36261 36 0 33.6374 0 30.7266V5.27344C0 2.36261 2.36261 0 5.27344 0H30.7266C33.6374 0 36 2.36261 36 5.27344Z" fill="#B680FB"/>
<path d="M36 5.27344V30.7266C36 33.6374 33.6298 36 30.7095 36H22.1743L20.0581 33.8906H19V0H30.7095C33.6298 0 36 2.36261 36 5.27344Z" fill="#7921E9"/>
<path d="M22.625 13.1848V17.3081H29L27.9375 23.4929H22.625V36H16.25V23.4929H12V17.3081H16.25V13.1848C16.25 10.8964 17.5463 8.89652 19.4375 7.82464C20.3724 7.30924 21.4776 7 22.625 7H29V13.1848H22.625Z" fill="#ECECF1"/>
<path d="M22 13.1848V17.3081H28L27 23.4929H22V36H19V7.82464C19.8799 7.30924 20.9201 7 22 7H28V13.1848H22Z" fill="#E2E2E7"/>
</svg>
