<svg width="36" height="36" viewBox="0 0 36 36" fill="none" xmlns="http://www.w3.org/2000/svg">
<path d="M30.7266 0H5.27344C2.36261 0 0 2.36261 0 5.27344V30.7266C0 33.6374 2.36261 36 5.27344 36H30.7266C33.6374 36 36 33.6374 36 30.7266V5.27344C36 2.36261 33.6374 0 30.7266 0Z" fill="#7921E9"/>
<path d="M36 5.27344V30.7266C36 33.6374 33.5061 36 30.4336 36H17V0H30.4336C33.5061 0 36 2.36261 36 5.27344Z" fill="#B680FB"/>
<path fill-rule="evenodd" clip-rule="evenodd" d="M25 7.5C25 9.42986 26.5701 11 28.5 11C30.4299 11 32 9.42986 32 7.5C32 5.57014 30.4299 4 28.5 4C26.5701 4 25 5.57014 25 7.5ZM27.3333 7.5C27.3333 6.85621 27.8562 6.33333 28.5 6.33333C29.1438 6.33333 29.6667 6.85621 29.6667 7.5C29.6667 8.14379 29.1438 8.66667 28.5 8.66667C27.8562 8.66667 27.3333 8.14379 27.3333 7.5Z" fill="#E2E2E7"/>
<path fill-rule="evenodd" clip-rule="evenodd" d="M9 17.5C9 12.2643 13.2488 8 18.4649 8C23.6811 8 28 12.2643 28 17.5C28 22.7354 23.6811 27 18.4649 27C13.2488 27 9 22.7354 9 17.5ZM11.1033 17.5C11.1033 21.5743 14.4056 24.8889 18.4649 24.8889C22.5242 24.8889 25.8967 21.5743 25.8967 17.5C25.8967 13.4257 22.5242 10.1111 18.4649 10.1111C14.4056 10.1111 11.1033 13.4257 11.1033 17.5Z" fill="#ECECF1"/>
<path d="M27 17.5C27 22.7354 22.4705 27 17 27V24.8889C21.2572 24.8889 24.7941 21.5743 24.7941 17.5C24.7941 13.4257 21.2572 10.1111 17 10.1111V8C22.4705 8 27 12.2643 27 17.5Z" fill="#E2E2E7"/>
</svg>
