<svg width="36" height="36" viewBox="0 0 36 36" fill="none" xmlns="http://www.w3.org/2000/svg">
<path d="M30.7266 0H5.27344C2.36261 0 0 2.43292 0 5.34375V30.7266C0 33.6374 2.36261 36 5.27344 36H30.7266C33.6374 36 36 33.6374 36 30.7266V5.34375C36 2.43292 33.6374 0 30.7266 0Z" fill="#B680FB"/>
<path d="M36 5.34375V30.7266C36 33.6374 33.6374 36 30.7266 36H18V0H30.7266C33.6374 0 36 2.43292 36 5.34375Z" fill="#7921E9"/>
<path d="M9 13.2791H13.2222V28H9V13.2791Z" fill="#ECECF1"/>
<path d="M9 7H13.2222V11.186H9V7Z" fill="#ECECF1"/>
<path d="M27.9999 18.8465V28H23.7777V19.5581C23.7777 18.407 22.8277 17.4651 21.6666 17.4651C20.5055 17.4651 19.5555 18.407 19.5555 19.5581V28H15.3333V13.2791H19.5555V14.0743C20.6534 13.7186 21.3711 13.2791 22.7221 13.2791C25.5933 13.2791 27.9999 15.8324 27.9999 18.8465V18.8465Z" fill="#ECECF1"/>
<path d="M27 19.673V29H23V20.3981C23 19.2251 22.1 18.2654 21 18.2654C19.9 18.2654 19 19.2251 19 20.3981V29H18V14H19V14.8103C20.0401 14.4479 20.7201 14 22 14C24.7201 14 27 16.6017 27 19.673V19.673Z" fill="#E2E2E7"/>
</svg>
